<svg width="24" height="24" viewBox="0 0 24 24" fill="none" xmlns="http://www.w3.org/2000/svg">
<g clip-path="url(#clip0_11_5)">
<path d="M23.1963 15.0506L21.4202 13.5505C21.5042 13.0415 21.5476 12.5219 21.5476 12.0022C21.5476 11.4825 21.5042 10.9628 21.4202 10.4539L23.1963 8.95375C23.3303 8.84045 23.4261 8.68956 23.4712 8.52112C23.5162 8.35269 23.5083 8.1747 23.4485 8.01082L23.4241 7.94118C22.9351 6.59115 22.2029 5.33966 21.2629 4.24717L21.2141 4.19092C21.1001 4.05846 20.9481 3.96324 20.7782 3.91781C20.6083 3.87238 20.4284 3.87887 20.2623 3.93643L18.0578 4.71059C17.2443 4.05162 16.3359 3.53194 15.3543 3.16763L14.9286 0.890687C14.8964 0.719359 14.8123 0.561742 14.6873 0.438775C14.5624 0.315807 14.4025 0.233311 14.229 0.202246L14.1557 0.188852C12.743 -0.0629508 11.257 -0.0629508 9.84426 0.188852L9.77105 0.202246C9.59749 0.233311 9.43762 0.315807 9.31266 0.438775C9.18769 0.561742 9.10357 0.719359 9.07145 0.890687L8.64301 3.17835C7.66924 3.54273 6.76241 4.06214 5.9585 4.71595L3.73768 3.93643C3.57164 3.87842 3.39166 3.87169 3.22165 3.91715C3.05164 3.9626 2.89966 4.05809 2.7859 4.19092L2.73709 4.24717C1.79819 5.34043 1.06613 6.59172 0.575931 7.94118L0.551526 8.01082C0.429503 8.34567 0.529833 8.72069 0.803707 8.95375L2.60151 10.4699C2.51745 10.9735 2.47678 11.4879 2.47678 11.9995C2.47678 12.5138 2.51745 13.0281 2.60151 13.5291L0.803707 15.0452C0.669741 15.1585 0.57386 15.3094 0.528814 15.4779C0.483767 15.6463 0.491689 15.8243 0.551526 15.9882L0.575931 16.0578C1.06673 17.4079 1.79345 18.6535 2.73709 19.7518L2.7859 19.8081C2.89994 19.9405 3.05192 20.0357 3.22183 20.0812C3.39174 20.1266 3.57159 20.1201 3.73768 20.0626L5.9585 19.283C6.76657 19.9393 7.66954 20.459 8.64301 20.8206L9.07145 23.1083C9.10357 23.2796 9.18769 23.4372 9.31266 23.5602C9.43762 23.6832 9.59749 23.7657 9.77105 23.7967L9.84426 23.8101C11.27 24.0633 12.73 24.0633 14.1557 23.8101L14.229 23.7967C14.4025 23.7657 14.5624 23.6832 14.6873 23.5602C14.8123 23.4372 14.8964 23.2796 14.9286 23.1083L15.3543 20.8314C16.3355 20.468 17.249 19.9466 18.0578 19.2884L20.2623 20.0626C20.4284 20.1206 20.6083 20.1273 20.7784 20.0818C20.9484 20.0364 21.1003 19.9409 21.2141 19.8081L21.2629 19.7518C22.2066 18.6508 22.9333 17.4079 23.4241 16.0578L23.4485 15.9882C23.5705 15.6587 23.4702 15.2837 23.1963 15.0506ZM19.4949 10.7699C19.5627 11.1744 19.598 11.5896 19.598 12.0049C19.598 12.4201 19.5627 12.8353 19.4949 13.2398L19.316 14.3139L21.3415 16.0257C21.0345 16.7245 20.6469 17.3861 20.1864 17.9972L17.67 17.1159L16.8186 17.807C16.1705 18.3321 15.4492 18.7446 14.6682 19.0339L13.6351 19.417L13.1497 22.0154C12.3839 22.1011 11.6107 22.1011 10.8448 22.0154L10.3595 19.4116L9.33447 19.0232C8.56166 18.7339 7.84308 18.3214 7.20043 17.799L6.34898 17.1052L3.81632 17.9946C3.35535 17.3811 2.97029 16.7195 2.66117 16.023L4.70845 14.2952L4.53219 13.2237C4.46711 12.8246 4.43186 12.412 4.43186 12.0049C4.43186 11.595 4.4644 11.1852 4.53219 10.786L4.70845 9.71451L2.66117 7.98671C2.96758 7.28756 3.35535 6.62858 3.81632 6.01515L6.34898 6.9045L7.20043 6.2107C7.84308 5.68834 8.56166 5.27581 9.33447 4.98651L10.3622 4.60344L10.8476 1.99969C11.6095 1.91397 12.3878 1.91397 13.1524 1.99969L13.6378 4.59809L14.6709 4.98115C15.4492 5.27046 16.1732 5.68298 16.8213 6.20802L17.6727 6.89914L20.1891 6.01783C20.6501 6.63126 21.0351 7.29292 21.3443 7.98939L19.3187 9.70112L19.4949 10.7699ZM12.0027 7.02236C9.36701 7.02236 7.23025 9.13322 7.23025 11.737C7.23025 14.3407 9.36701 16.4516 12.0027 16.4516C14.6384 16.4516 16.7752 14.3407 16.7752 11.737C16.7752 9.13322 14.6384 7.02236 12.0027 7.02236ZM14.1503 13.8586C13.8686 14.1376 13.5339 14.3589 13.1653 14.5097C12.7967 14.6605 12.4016 14.7378 12.0027 14.7372C11.1919 14.7372 10.43 14.4238 9.85511 13.8586C9.57262 13.5803 9.34861 13.2496 9.19597 12.8855C9.04333 12.5214 8.96507 12.1311 8.96569 11.737C8.96569 10.936 9.28295 10.1833 9.85511 9.6154C10.43 9.0475 11.1919 8.73677 12.0027 8.73677C12.8135 8.73677 13.5755 9.0475 14.1503 9.6154C14.4328 9.89366 14.6568 10.2244 14.8095 10.5885C14.9621 10.9526 15.0404 11.3429 15.0397 11.737C15.0397 12.5379 14.7225 13.2907 14.1503 13.8586Z" fill="black"/>
</g>
<defs>
<clipPath id="clip0_11_5">
<rect width="24" height="24" fill="white"/>
</clipPath>
</defs>
</svg>
